REM DIRINDEX 1\2,1\3,1\4,1\5
REM DIRNAME cjc087,folder01,folder02,folder03,folder04
TITLE ""
FILE "Chapter_16.mp3" MP3
  TRACK 01 AUDIO
    TITLE "0:"
    INDEX 01 00:00:00
  TRACK 02 AUDIO
    TITLE "5:cjc087_4904"
    INDEX 01 00:00:05
  TRACK 03 AUDIO
    TITLE "0:"
    INDEX 01 00:02:10
  TRACK 04 AUDIO
    TITLE "5:cjc087_4905"
    INDEX 01 00:03:47
  TRACK 05 AUDIO
    TITLE "0:"
    INDEX 01 00:06:12
  TRACK 06 AUDIO
    TITLE "4:cjc087_4906"
    INDEX 01 00:07:09
  TRACK 07 AUDIO
    TITLE "3:cjc087_4907"
    INDEX 01 00:08:56
  TRACK 08 AUDIO
    TITLE "0:"
    INDEX 01 00:10:39
  TRACK 09 AUDIO
    TITLE "4:cjc087_4908"
    INDEX 01 00:11:39
  TRACK 10 AUDIO
    TITLE "3:cjc087_4909"
    INDEX 01 00:13:35
  TRACK 11 AUDIO
    TITLE "0:"
    INDEX 01 00:15:42
  TRACK 12 AUDIO
    TITLE "4:cjc087_4910"
    INDEX 01 00:16:42
  TRACK 13 AUDIO
    TITLE "3:cjc087_4911"
    INDEX 01 00:19:07
  TRACK 14 AUDIO
    TITLE "0:"
    INDEX 01 00:20:71
  TRACK 15 AUDIO
    TITLE "4:cjc087_4912"
    INDEX 01 00:21:68
  TRACK 16 AUDIO
    TITLE "3:cjc087_4913"
    INDEX 01 00:24:06
  TRACK 17 AUDIO
    TITLE "0:"
    INDEX 01 00:27:04
  TRACK 18 AUDIO
    TITLE "4:cjc087_4914"
    INDEX 01 00:28:04
  TRACK 19 AUDIO
    TITLE "3:cjc087_4915"
    INDEX 01 00:32:01
  TRACK 20 AUDIO
    TITLE "0:"
    INDEX 01 00:35:39
  TRACK 21 AUDIO
    TITLE "4:cjc087_4916"
    INDEX 01 00:36:36
  TRACK 22 AUDIO
    TITLE "3:cjc087_4917"
    INDEX 01 00:38:53
  TRACK 23 AUDIO
    TITLE "0:"
    INDEX 01 00:41:42
  TRACK 24 AUDIO
    TITLE "4:cjc087_4918"
    INDEX 01 00:42:41
  TRACK 25 AUDIO
    TITLE "3:cjc087_4919"
    INDEX 01 00:44:26
  TRACK 26 AUDIO
    TITLE "0:"
    INDEX 01 00:46:37
  TRACK 27 AUDIO
    TITLE "5:cjc087_4920"
    INDEX 01 00:48:04
  TRACK 28 AUDIO
    TITLE "0:"
    INDEX 01 00:50:35
  TRACK 29 AUDIO
    TITLE "3:cjc087_4921"
    INDEX 01 00:51:32
  TRACK 30 AUDIO
    TITLE "4:cjc087_4922"
    INDEX 01 00:53:45
  TRACK 31 AUDIO
    TITLE "0:"
    INDEX 01 00:55:26
  TRACK 32 AUDIO
    TITLE "3:cjc087_4923"
    INDEX 01 00:56:24
  TRACK 33 AUDIO
    TITLE "4:cjc087_4924"
    INDEX 01 00:58:64
  TRACK 34 AUDIO
    TITLE "0:"
    INDEX 01 01:01:13
  TRACK 35 AUDIO
    TITLE "3:cjc087_4925"
    INDEX 01 01:02:10
  TRACK 36 AUDIO
    TITLE "4:cjc087_4926"
    INDEX 01 01:05:42
  TRACK 37 AUDIO
    TITLE "0:"
    INDEX 01 01:07:27
  TRACK 38 AUDIO
    TITLE "3:cjc087_4927"
    INDEX 01 01:08:23
  TRACK 39 AUDIO
    TITLE "4:cjc087_4928"
    INDEX 01 01:10:69
  TRACK 40 AUDIO
    TITLE "0:"
    INDEX 01 01:13:38
  TRACK 41 AUDIO
    TITLE "3:cjc087_4929"
    INDEX 01 01:14:33
  TRACK 42 AUDIO
    TITLE "4:cjc087_4930"
    INDEX 01 01:16:46
  TRACK 43 AUDIO
    TITLE "0:"
    INDEX 01 01:18:31
  TRACK 44 AUDIO
    TITLE "3:cjc087_4931"
    INDEX 01 01:19:28
  TRACK 45 AUDIO
    TITLE "4:cjc087_4932"
    INDEX 01 01:21:20
  TRACK 46 AUDIO
    TITLE "0:"
    INDEX 01 01:23:20
  TRACK 47 AUDIO
    TITLE "3:cjc087_4933"
    INDEX 01 01:24:18
  TRACK 48 AUDIO
    TITLE "4:cjc087_4934"
    INDEX 01 01:26:38
  TRACK 49 AUDIO
    TITLE "0:"
    INDEX 01 01:28:63
  TRACK 50 AUDIO
    TITLE "5:cjc087_4935"
    INDEX 01 01:30:22
  TRACK 51 AUDIO
    TITLE "0:"
    INDEX 01 01:32:55
  TRACK 52 AUDIO
    TITLE "4:cjc087_4936"
    INDEX 01 01:33:52
  TRACK 53 AUDIO
    TITLE "3:cjc087_4937"
    INDEX 01 01:34:63
  TRACK 54 AUDIO
    TITLE "0:"
    INDEX 01 01:36:52
  TRACK 55 AUDIO
    TITLE "4:cjc087_4938"
    INDEX 01 01:37:56
  TRACK 56 AUDIO
    TITLE "3:cjc087_4939"
    INDEX 01 01:39:12
  TRACK 57 AUDIO
    TITLE "0:"
    INDEX 01 01:41:36
  TRACK 58 AUDIO
    TITLE "4:cjc087_4940"
    INDEX 01 01:42:39
  TRACK 59 AUDIO
    TITLE "3:cjc087_4941"
    INDEX 01 01:44:23
  TRACK 60 AUDIO
    TITLE "0:"
    INDEX 01 01:46:04
  TRACK 61 AUDIO
    TITLE "4:cjc087_4942"
    INDEX 01 01:47:03
  TRACK 62 AUDIO
    TITLE "3:cjc087_4943"
    INDEX 01 01:49:10
  TRACK 63 AUDIO
    TITLE "0:"
    INDEX 01 01:51:50
  TRACK 64 AUDIO
    TITLE "4:cjc087_4944"
    INDEX 01 01:52:49
  TRACK 65 AUDIO
    TITLE "3:cjc087_4945"
    INDEX 01 01:54:13
  TRACK 66 AUDIO
    TITLE "0:"
    INDEX 01 01:55:63
  TRACK 67 AUDIO
    TITLE "4:cjc087_4946"
    INDEX 01 01:56:63
  TRACK 68 AUDIO
    TITLE "3:cjc087_4947"
    INDEX 01 01:59:12
  TRACK 69 AUDIO
    TITLE "0:"
    INDEX 01 02:01:64
  TRACK 70 AUDIO
    TITLE "4:cjc087_4948"
    INDEX 01 02:02:62
  TRACK 71 AUDIO
    TITLE "3:cjc087_4949"
    INDEX 01 02:04:19
  TRACK 72 AUDIO
    TITLE "0:"
    INDEX 01 02:05:74
  TRACK 73 AUDIO
    TITLE "4:cjc087_4950"
    INDEX 01 02:06:73
  TRACK 74 AUDIO
    TITLE "3:cjc087_4951"
    INDEX 01 02:09:17
  TRACK 75 AUDIO
    TITLE "0:"
    INDEX 01 02:12:05
  TRACK 76 AUDIO
    TITLE "5:cjc087_4952"
    INDEX 01 02:13:40
  TRACK 77 AUDIO
    TITLE "0:"
    INDEX 01 02:15:72
  TRACK 78 AUDIO
    TITLE "4:cjc087_4953"
    INDEX 01 02:16:70
  TRACK 79 AUDIO
    TITLE "3:cjc087_4954"
    INDEX 01 02:19:40
  TRACK 80 AUDIO
    TITLE "0:"
    INDEX 01 02:21:69
  TRACK 81 AUDIO
    TITLE "4:cjc087_4955"
    INDEX 01 02:22:66
  TRACK 82 AUDIO
    TITLE "3:cjc087_4956"
    INDEX 01 02:25:18
  TRACK 83 AUDIO
    TITLE "0:"
    INDEX 01 02:28:24
  TRACK 84 AUDIO
    TITLE "4:cjc087_4957"
    INDEX 01 02:29:23
  TRACK 85 AUDIO
    TITLE "3:cjc087_4958"
    INDEX 01 02:31:32
  TRACK 86 AUDIO
    TITLE "0:"
    INDEX 01 02:33:11
  TRACK 87 AUDIO
    TITLE "4:cjc087_4959"
    INDEX 01 02:34:11
  TRACK 88 AUDIO
    TITLE "3:cjc087_4960"
    INDEX 01 02:36:06
  TRACK 89 AUDIO
    TITLE "0:"
    INDEX 01 02:38:28
  TRACK 90 AUDIO
    TITLE "4:cjc087_4961"
    INDEX 01 02:39:27
  TRACK 91 AUDIO
    TITLE "3:cjc087_4962"
    INDEX 01 02:41:22
  TRACK 92 AUDIO
    TITLE "0:"
    INDEX 01 02:43:31
  TRACK 93 AUDIO
    TITLE "4:cjc087_4963"
    INDEX 01 02:44:31
  TRACK 94 AUDIO
    TITLE "3:cjc087_4964"
    INDEX 01 02:46:04
  TRACK 95 AUDIO
    TITLE "0:"
    INDEX 01 02:48:11
  TRACK 96 AUDIO
    TITLE "4:cjc087_4965"
    INDEX 01 02:49:08
  TRACK 97 AUDIO
    TITLE "3:cjc087_4966"
    INDEX 01 02:51:05
  TRACK 98 AUDIO
    TITLE "0:"
    INDEX 01 02:52:63
  TRACK 99 AUDIO
    TITLE "5:cjc087_4967"
    INDEX 01 02:54:23
  TRACK 100 AUDIO
    TITLE "0:"
    INDEX 01 02:56:46
  TRACK 101 AUDIO
    TITLE "4:cjc087_4968"
    INDEX 01 02:57:45
  TRACK 102 AUDIO
    TITLE "3:cjc087_4969"
    INDEX 01 02:58:74
  TRACK 103 AUDIO
    TITLE "0:"
    INDEX 01 03:00:59
  TRACK 104 AUDIO
    TITLE "4:cjc087_4970"
    INDEX 01 03:01:57
  TRACK 105 AUDIO
    TITLE "3:cjc087_4971"
    INDEX 01 03:04:37
  TRACK 106 AUDIO
    TITLE "0:"
    INDEX 01 03:07:26
  TRACK 107 AUDIO
    TITLE "4:cjc087_4972"
    INDEX 01 03:08:25
  TRACK 108 AUDIO
    TITLE "3:cjc087_4973"
    INDEX 01 03:10:38
  TRACK 109 AUDIO
    TITLE "0:"
    INDEX 01 03:13:03
  TRACK 110 AUDIO
    TITLE "4:cjc087_4974"
    INDEX 01 03:14:00
  TRACK 111 AUDIO
    TITLE "3:cjc087_4975"
    INDEX 01 03:15:49
  TRACK 112 AUDIO
    TITLE "0:"
    INDEX 01 03:17:65
  TRACK 113 AUDIO
    TITLE "4:cjc087_4976"
    INDEX 01 03:18:65
  TRACK 114 AUDIO
    TITLE "3:cjc087_4977"
    INDEX 01 03:20:54
  TRACK 115 AUDIO
    TITLE "0:"
    INDEX 01 03:22:72
  TRACK 116 AUDIO
    TITLE "4:cjc087_4978"
    INDEX 01 03:23:72
  TRACK 117 AUDIO
    TITLE "3:cjc087_4979"
    INDEX 01 03:26:35
  TRACK 118 AUDIO
    TITLE "0:"
    INDEX 01 03:28:42
  TRACK 119 AUDIO
    TITLE "4:cjc087_4980"
    INDEX 01 03:29:43
  TRACK 120 AUDIO
    TITLE "3:cjc087_4981"
    INDEX 01 03:31:24
  TRACK 121 AUDIO
    TITLE "0:"
    INDEX 01 03:33:21
  TRACK 122 AUDIO
    TITLE "2:cjc087_4982"
    INDEX 01 03:34:56
  TRACK 123 AUDIO
    TITLE "0:"
    INDEX 01 03:55:37
  TRACK 124 AUDIO
    TITLE "5:cjc087_4983"
    INDEX 01 03:57:02
  TRACK 125 AUDIO
    TITLE "0:"
    INDEX 01 03:59:34
  TRACK 126 AUDIO
    TITLE "3:cjc087_4984"
    INDEX 01 04:00:32
  TRACK 127 AUDIO
    TITLE "4:cjc087_4985"
    INDEX 01 04:02:21
  TRACK 128 AUDIO
    TITLE "0:"
    INDEX 01 04:04:51
  TRACK 129 AUDIO
    TITLE "3:cjc087_4986"
    INDEX 01 04:05:47
  TRACK 130 AUDIO
    TITLE "4:cjc087_4987"
    INDEX 01 04:08:02
  TRACK 131 AUDIO
    TITLE "0:"
    INDEX 01 04:10:18
  TRACK 132 AUDIO
    TITLE "3:cjc087_4988"
    INDEX 01 04:11:16
  TRACK 133 AUDIO
    TITLE "4:cjc087_4989"
    INDEX 01 04:13:44
  TRACK 134 AUDIO
    TITLE "0:"
    INDEX 01 04:15:51
  TRACK 135 AUDIO
    TITLE "3:cjc087_4990"
    INDEX 01 04:16:48
  TRACK 136 AUDIO
    TITLE "4:cjc087_4991"
    INDEX 01 04:19:68
  TRACK 137 AUDIO
    TITLE "0:"
    INDEX 01 04:24:17
  TRACK 138 AUDIO
    TITLE "3:cjc087_4992"
    INDEX 01 04:25:14
  TRACK 139 AUDIO
    TITLE "4:cjc087_4993"
    INDEX 01 04:27:46
  TRACK 140 AUDIO
    TITLE "0:"
    INDEX 01 04:29:45
  TRACK 141 AUDIO
    TITLE "3:cjc087_4994"
    INDEX 01 04:30:45
  TRACK 142 AUDIO
    TITLE "4:cjc087_4995"
    INDEX 01 04:33:06
  TRACK 143 AUDIO
    TITLE "0:"
    INDEX 01 04:35:20
  TRACK 144 AUDIO
    TITLE "3:cjc087_4996"
    INDEX 01 04:36:18
  TRACK 145 AUDIO
    TITLE "4:cjc087_4997"
    INDEX 01 04:38:40
  TRACK 146 AUDIO
    TITLE "0:"
    INDEX 01 04:40:24
  TRACK 147 AUDIO
    TITLE "5:cjc087_4998"
    INDEX 01 04:41:56
  TRACK 148 AUDIO
    TITLE "0:"
    INDEX 01 04:44:12
  TRACK 149 AUDIO
    TITLE "4:cjc087_4999"
    INDEX 01 04:45:09
  TRACK 150 AUDIO
    TITLE "3:cjc087_5000"
    INDEX 01 04:46:67
  TRACK 151 AUDIO
    TITLE "0:"
    INDEX 01 04:49:19
  TRACK 152 AUDIO
    TITLE "4:cjc087_5001"
    INDEX 01 04:50:18
  TRACK 153 AUDIO
    TITLE "3:cjc087_5002"
    INDEX 01 04:52:03
  TRACK 154 AUDIO
    TITLE "0:"
    INDEX 01 04:54:04
  TRACK 155 AUDIO
    TITLE "4:cjc087_5003"
    INDEX 01 04:55:02
  TRACK 156 AUDIO
    TITLE "3:cjc087_5004"
    INDEX 01 04:57:49
  TRACK 157 AUDIO
    TITLE "0:"
    INDEX 01 05:00:60
  TRACK 158 AUDIO
    TITLE "4:cjc087_5005"
    INDEX 01 05:01:57
  TRACK 159 AUDIO
    TITLE "3:cjc087_5006"
    INDEX 01 05:04:02
  TRACK 160 AUDIO
    TITLE "0:"
    INDEX 01 05:06:33
  TRACK 161 AUDIO
    TITLE "4:cjc087_5007"
    INDEX 01 05:07:24
  TRACK 162 AUDIO
    TITLE "3:cjc087_5008"
    INDEX 01 05:09:37
  TRACK 163 AUDIO
    TITLE "0:"
    INDEX 01 05:11:50
  TRACK 164 AUDIO
    TITLE "4:cjc087_5009"
    INDEX 01 05:12:47
  TRACK 165 AUDIO
    TITLE "3:cjc087_5010"
    INDEX 01 05:14:54
  TRACK 166 AUDIO
    TITLE "0:"
    INDEX 01 05:17:23
  TRACK 167 AUDIO
    TITLE "5:cjc087_5011"
    INDEX 01 05:18:59
  TRACK 168 AUDIO
    TITLE "0:"
    INDEX 01 05:21:17
  TRACK 169 AUDIO
    TITLE "4:cjc087_5012"
    INDEX 01 05:22:14
  TRACK 170 AUDIO
    TITLE "3:cjc087_5013"
    INDEX 01 05:24:33
  TRACK 171 AUDIO
    TITLE "0:"
    INDEX 01 05:27:49
  TRACK 172 AUDIO
    TITLE "4:cjc087_5014"
    INDEX 01 05:28:46
  TRACK 173 AUDIO
    TITLE "3:cjc087_5015"
    INDEX 01 05:30:47
  TRACK 174 AUDIO
    TITLE "0:"
    INDEX 01 05:33:04
  TRACK 175 AUDIO
    TITLE "4:cjc087_5016"
    INDEX 01 05:34:04
  TRACK 176 AUDIO
    TITLE "3:cjc087_5017"
    INDEX 01 05:36:30
  TRACK 177 AUDIO
    TITLE "0:"
    INDEX 01 05:39:42
  TRACK 178 AUDIO
    TITLE "4:cjc087_5018"
    INDEX 01 05:40:39
  TRACK 179 AUDIO
    TITLE "3:cjc087_5019"
    INDEX 01 05:42:09
  TRACK 180 AUDIO
    TITLE "0:"
    INDEX 01 05:43:61
  TRACK 181 AUDIO
    TITLE "4:cjc087_5020"
    INDEX 01 05:44:61
  TRACK 182 AUDIO
    TITLE "3:cjc087_5021"
    INDEX 01 05:46:13
  TRACK 183 AUDIO
    TITLE "0:"
    INDEX 01 05:48:21
  TRACK 184 AUDIO
    TITLE "4:cjc087_5022"
    INDEX 01 05:49:19
  TRACK 185 AUDIO
    TITLE "3:cjc087_5023"
    INDEX 01 05:51:29
  TRACK 186 AUDIO
    TITLE "0:"
    INDEX 01 05:53:56
  TRACK 187 AUDIO
    TITLE "4:cjc087_5024"
    INDEX 01 05:54:55
  TRACK 188 AUDIO
    TITLE "3:cjc087_5025"
    INDEX 01 05:56:17
  TRACK 189 AUDIO
    TITLE "0:"
    INDEX 01 05:58:49
  TRACK 190 AUDIO
    TITLE "5:cjc087_5026"
    INDEX 01 06:00:09
  TRACK 191 AUDIO
    TITLE "0:"
    INDEX 01 06:02:41
  TRACK 192 AUDIO
    TITLE "4:cjc087_5027"
    INDEX 01 06:03:37
  TRACK 193 AUDIO
    TITLE "3:cjc087_5028"
    INDEX 01 06:06:07
  TRACK 194 AUDIO
    TITLE "0:"
    INDEX 01 06:08:51
  TRACK 195 AUDIO
    TITLE "4:cjc087_5029"
    INDEX 01 06:09:49
  TRACK 196 AUDIO
    TITLE "3:cjc087_5030"
    INDEX 01 06:11:58
  TRACK 197 AUDIO
    TITLE "0:"
    INDEX 01 06:14:01
  TRACK 198 AUDIO
    TITLE "4:cjc087_5031"
    INDEX 01 06:14:70
  TRACK 199 AUDIO
    TITLE "3:cjc087_5032"
    INDEX 01 06:16:45
  TRACK 200 AUDIO
    TITLE "0:"
    INDEX 01 06:18:46
  TRACK 201 AUDIO
    TITLE "4:cjc087_5033"
    INDEX 01 06:19:45
  TRACK 202 AUDIO
    TITLE "3:cjc087_5034"
    INDEX 01 06:21:21
  TRACK 203 AUDIO
    TITLE "0:"
    INDEX 01 06:23:29
  TRACK 204 AUDIO
    TITLE "4:cjc087_5035"
    INDEX 01 06:24:27
  TRACK 205 AUDIO
    TITLE "3:cjc087_5036"
    INDEX 01 06:26:00
  TRACK 206 AUDIO
    TITLE "0:"
    INDEX 01 06:27:57
  TRACK 207 AUDIO
    TITLE "4:cjc087_5037"
    INDEX 01 06:28:54
  TRACK 208 AUDIO
    TITLE "3:cjc087_5038"
    INDEX 01 06:30:71
  TRACK 209 AUDIO
    TITLE "0:"
    INDEX 01 06:33:16
  TRACK 210 AUDIO
    TITLE "4:cjc087_5039"
    INDEX 01 06:34:16
  TRACK 211 AUDIO
    TITLE "3:cjc087_5040"
    INDEX 01 06:35:37
  TRACK 212 AUDIO
    TITLE "0:"
    INDEX 01 06:38:02
  TRACK 213 AUDIO
    TITLE "5:cjc087_5041"
    INDEX 01 06:39:36
  TRACK 214 AUDIO
    TITLE "0:"
    INDEX 01 06:41:41
  TRACK 215 AUDIO
    TITLE "4:cjc087_5042"
    INDEX 01 06:42:39
  TRACK 216 AUDIO
    TITLE "3:cjc087_5043"
    INDEX 01 06:44:22
  TRACK 217 AUDIO
    TITLE "0:"
    INDEX 01 06:47:04
  TRACK 218 AUDIO
    TITLE "4:cjc087_5044"
    INDEX 01 06:48:00
  TRACK 219 AUDIO
    TITLE "3:cjc087_5045"
    INDEX 01 06:49:21
  TRACK 220 AUDIO
    TITLE "0:"
    INDEX 01 06:51:04
  TRACK 221 AUDIO
    TITLE "4:cjc087_5046"
    INDEX 01 06:52:02
  TRACK 222 AUDIO
    TITLE "3:cjc087_5047"
    INDEX 01 06:53:52
  TRACK 223 AUDIO
    TITLE "0:"
    INDEX 01 06:56:17
  TRACK 224 AUDIO
    TITLE "4:cjc087_5048"
    INDEX 01 06:57:17
  TRACK 225 AUDIO
    TITLE "3:cjc087_5049"
    INDEX 01 06:59:12
  TRACK 226 AUDIO
    TITLE "0:"
    INDEX 01 07:01:18
  TRACK 227 AUDIO
    TITLE "4:cjc087_5050"
    INDEX 01 07:02:14
  TRACK 228 AUDIO
    TITLE "3:cjc087_5051"
    INDEX 01 07:04:19
  TRACK 229 AUDIO
    TITLE "0:"
    INDEX 01 07:06:39
  TRACK 230 AUDIO
    TITLE "4:cjc087_5052"
    INDEX 01 07:07:42
  TRACK 231 AUDIO
    TITLE "3:cjc087_5053"
    INDEX 01 07:09:61
  TRACK 232 AUDIO
    TITLE "0:"
    INDEX 01 07:12:06
  TRACK 233 AUDIO
    TITLE "4:cjc087_5054"
    INDEX 01 07:13:02
  TRACK 234 AUDIO
    TITLE "3:cjc087_5055"
    INDEX 01 07:14:62
  TRACK 235 AUDIO
    TITLE "0:"
    INDEX 01 07:17:09
  TRACK 236 AUDIO
    TITLE "4:cjc087_5056"
    INDEX 01 07:18:09
  TRACK 237 AUDIO
    TITLE "3:cjc087_5057"
    INDEX 01 07:20:14
  TRACK 238 AUDIO
    TITLE "0:"
    INDEX 01 07:21:70
  TRACK 239 AUDIO
    TITLE "2:cjc087_5058"
    INDEX 01 07:23:32
  TRACK 240 AUDIO
    TITLE "0:"
    INDEX 01 07:35:60
  TRACK 241 AUDIO
    TITLE "5:cjc087_5059"
    INDEX 01 07:37:30
  TRACK 242 AUDIO
    TITLE "0:"
    INDEX 01 07:39:56
  TRACK 243 AUDIO
    TITLE "4:cjc087_5060"
    INDEX 01 07:40:54
  TRACK 244 AUDIO
    TITLE "3:cjc087_5061"
    INDEX 01 07:42:23
  TRACK 245 AUDIO
    TITLE "0:"
    INDEX 01 07:44:08
  TRACK 246 AUDIO
    TITLE "4:cjc087_5062"
    INDEX 01 07:45:04
  TRACK 247 AUDIO
    TITLE "3:cjc087_5063"
    INDEX 01 07:46:68
  TRACK 248 AUDIO
    TITLE "0:"
    INDEX 01 07:48:51
  TRACK 249 AUDIO
    TITLE "4:cjc087_5064"
    INDEX 01 07:49:51
  TRACK 250 AUDIO
    TITLE "3:cjc087_5065"
    INDEX 01 07:51:34
  TRACK 251 AUDIO
    TITLE "0:"
    INDEX 01 07:54:34
  TRACK 252 AUDIO
    TITLE "4:cjc087_5066"
    INDEX 01 07:55:30
  TRACK 253 AUDIO
    TITLE "3:cjc087_5067"
    INDEX 01 07:57:38
  TRACK 254 AUDIO
    TITLE "0:"
    INDEX 01 08:00:00
  TRACK 255 AUDIO
    TITLE "4:cjc087_5068"
    INDEX 01 08:00:74
  TRACK 256 AUDIO
    TITLE "3:cjc087_5069"
    INDEX 01 08:03:04
  TRACK 257 AUDIO
    TITLE "0:"
    INDEX 01 08:06:28
  TRACK 258 AUDIO
    TITLE "5:cjc087_5070"
    INDEX 01 08:07:62
  TRACK 259 AUDIO
    TITLE "0:"
    INDEX 01 08:10:06
  TRACK 260 AUDIO
    TITLE "4:cjc087_5071"
    INDEX 01 08:11:03
  TRACK 261 AUDIO
    TITLE "3:cjc087_5072"
    INDEX 01 08:13:45
  TRACK 262 AUDIO
    TITLE "0:"
    INDEX 01 08:16:06
  TRACK 263 AUDIO
    TITLE "4:cjc087_5073"
    INDEX 01 08:17:06
  TRACK 264 AUDIO
    TITLE "3:cjc087_5074"
    INDEX 01 08:19:13
  TRACK 265 AUDIO
    TITLE "0:"
    INDEX 01 08:21:64
  TRACK 266 AUDIO
    TITLE "4:cjc087_5075"
    INDEX 01 08:22:64
  TRACK 267 AUDIO
    TITLE "3:cjc087_5076"
    INDEX 01 08:25:23
  TRACK 268 AUDIO
    TITLE "0:"
    INDEX 01 08:27:69
  TRACK 269 AUDIO
    TITLE "4:cjc087_5077"
    INDEX 01 08:28:68
  TRACK 270 AUDIO
    TITLE "3:cjc087_5078"
    INDEX 01 08:31:71
  TRACK 271 AUDIO
    TITLE "0:"
    INDEX 01 08:34:43
  TRACK 272 AUDIO
    TITLE "4:cjc087_5079"
    INDEX 01 08:35:43
  TRACK 273 AUDIO
    TITLE "3:cjc087_5080"
    INDEX 01 08:37:01
  TRACK 274 AUDIO
    TITLE "0:"
    INDEX 01 08:39:13
  TRACK 275 AUDIO
    TITLE "4:cjc087_5081"
    INDEX 01 08:40:13
  TRACK 276 AUDIO
    TITLE "3:cjc087_5082"
    INDEX 01 08:42:25
  TRACK 277 AUDIO
    TITLE "0:"
    INDEX 01 08:45:08
  TRACK 278 AUDIO
    TITLE "5:cjc087_5083"
    INDEX 01 08:46:45
  TRACK 279 AUDIO
    TITLE "0:"
    INDEX 01 08:48:65
  TRACK 280 AUDIO
    TITLE "4:cjc087_5084"
    INDEX 01 08:49:63
  TRACK 281 AUDIO
    TITLE "3:cjc087_5085"
    INDEX 01 08:52:43
  TRACK 282 AUDIO
    TITLE "0:"
    INDEX 01 08:55:46
  TRACK 283 AUDIO
    TITLE "4:cjc087_5086"
    INDEX 01 08:56:43
  TRACK 284 AUDIO
    TITLE "3:cjc087_5087"
    INDEX 01 08:58:38
  TRACK 285 AUDIO
    TITLE "0:"
    INDEX 01 09:01:15
  TRACK 286 AUDIO
    TITLE "4:cjc087_5088"
    INDEX 01 09:02:10
  TRACK 287 AUDIO
    TITLE "3:cjc087_5089"
    INDEX 01 09:04:52
  TRACK 288 AUDIO
    TITLE "0:"
    INDEX 01 09:07:25
  TRACK 289 AUDIO
    TITLE "4:cjc087_5090"
    INDEX 01 09:08:25
  TRACK 290 AUDIO
    TITLE "3:cjc087_5091"
    INDEX 01 09:10:47
  TRACK 291 AUDIO
    TITLE "0:"
    INDEX 01 09:13:14
  TRACK 292 AUDIO
    TITLE "4:cjc087_5092"
    INDEX 01 09:14:12
  TRACK 293 AUDIO
    TITLE "3:cjc087_5093"
    INDEX 01 09:15:70
  TRACK 294 AUDIO
    TITLE "0:"
    INDEX 01 09:18:07
  TRACK 295 AUDIO
    TITLE "4:cjc087_5094"
    INDEX 01 09:19:03
  TRACK 296 AUDIO
    TITLE "3:cjc087_5095"
    INDEX 01 09:21:39
  TRACK 297 AUDIO
    TITLE "0:"
    INDEX 01 09:24:02
  TRACK 298 AUDIO
    TITLE "5:cjc087_5096"
    INDEX 01 09:25:39
  TRACK 299 AUDIO
    TITLE "0:"
    INDEX 01 09:27:65
  TRACK 300 AUDIO
    TITLE "3:cjc087_5097"
    INDEX 01 09:28:65
  TRACK 301 AUDIO
    TITLE "4:cjc087_5098"
    INDEX 01 09:30:46
  TRACK 302 AUDIO
    TITLE "0:"
    INDEX 01 09:32:10
  TRACK 303 AUDIO
    TITLE "3:cjc087_5099"
    INDEX 01 09:33:07
  TRACK 304 AUDIO
    TITLE "4:cjc087_5100"
    INDEX 01 09:35:73
  TRACK 305 AUDIO
    TITLE "0:"
    INDEX 01 09:38:38
  TRACK 306 AUDIO
    TITLE "3:cjc087_5101"
    INDEX 01 09:39:35
  TRACK 307 AUDIO
    TITLE "4:cjc087_5102"
    INDEX 01 09:41:16
  TRACK 308 AUDIO
    TITLE "0:"
    INDEX 01 09:43:05
  TRACK 309 AUDIO
    TITLE "3:cjc087_5103"
    INDEX 01 09:43:72
  TRACK 310 AUDIO
    TITLE "4:cjc087_5104"
    INDEX 01 09:45:71
  TRACK 311 AUDIO
    TITLE "0:"
    INDEX 01 09:47:68
  TRACK 312 AUDIO
    TITLE "3:cjc087_5105"
    INDEX 01 09:48:67
  TRACK 313 AUDIO
    TITLE "4:cjc087_5106"
    INDEX 01 09:51:03
  TRACK 314 AUDIO
    TITLE "0:"
    INDEX 01 09:53:10
  TRACK 315 AUDIO
    TITLE "3:cjc087_5107"
    INDEX 01 09:54:07
  TRACK 316 AUDIO
    TITLE "4:cjc087_5108"
    INDEX 01 09:56:30
  TRACK 317 AUDIO
    TITLE "0:"
    INDEX 01 09:57:72
  TRACK 318 AUDIO
    TITLE "5:cjc087_5109"
    INDEX 01 09:59:32
  TRACK 319 AUDIO
    TITLE "0:"
    INDEX 01 10:01:50
  TRACK 320 AUDIO
    TITLE "4:cjc087_5110"
    INDEX 01 10:02:48
  TRACK 321 AUDIO
    TITLE "3:cjc087_5111"
    INDEX 01 10:05:07
  TRACK 322 AUDIO
    TITLE "0:"
    INDEX 01 10:08:03
  TRACK 323 AUDIO
    TITLE "4:cjc087_5112"
    INDEX 01 10:09:01
  TRACK 324 AUDIO
    TITLE "3:cjc087_5113"
    INDEX 01 10:12:05
  TRACK 325 AUDIO
    TITLE "0:"
    INDEX 01 10:15:41
  TRACK 326 AUDIO
    TITLE "4:cjc087_5114"
    INDEX 01 10:16:32
  TRACK 327 AUDIO
    TITLE "3:cjc087_5115"
    INDEX 01 10:19:25
  TRACK 328 AUDIO
    TITLE "0:"
    INDEX 01 10:22:35
  TRACK 329 AUDIO
    TITLE "4:cjc087_5116"
    INDEX 01 10:23:32
  TRACK 330 AUDIO
    TITLE "3:cjc087_5117"
    INDEX 01 10:26:21
  TRACK 331 AUDIO
    TITLE "0:"
    INDEX 01 10:28:61
  TRACK 332 AUDIO
    TITLE "4:cjc087_5118"
    INDEX 01 10:29:58
  TRACK 333 AUDIO
    TITLE "3:cjc087_5119"
    INDEX 01 10:32:55
  TRACK 334 AUDIO
    TITLE "0:"
    INDEX 01 10:35:69
  TRACK 335 AUDIO
    TITLE "2:cjc087_5120"
    INDEX 01 10:37:29
  TRACK 336 AUDIO
    TITLE "0:"
    INDEX 01 10:56:46
  TRACK 337 AUDIO
    TITLE "5:cjc087_5121"
    INDEX 01 10:58:15
  TRACK 338 AUDIO
    TITLE "0:"
    INDEX 01 11:00:47
  TRACK 339 AUDIO
    TITLE "4:cjc087_5122"
    INDEX 01 11:01:45
  TRACK 340 AUDIO
    TITLE "3:cjc087_5123"
    INDEX 01 11:04:25
  TRACK 341 AUDIO
    TITLE "0:"
    INDEX 01 11:07:20
  TRACK 342 AUDIO
    TITLE "4:cjc087_5124"
    INDEX 01 11:08:21
  TRACK 343 AUDIO
    TITLE "3:cjc087_5125"
    INDEX 01 11:10:46
  TRACK 344 AUDIO
    TITLE "0:"
    INDEX 01 11:13:34
  TRACK 345 AUDIO
    TITLE "4:cjc087_5126"
    INDEX 01 11:14:32
  TRACK 346 AUDIO
    TITLE "3:cjc087_5127"
    INDEX 01 11:15:68
  TRACK 347 AUDIO
    TITLE "0:"
    INDEX 01 11:17:65
  TRACK 348 AUDIO
    TITLE "4:cjc087_5128"
    INDEX 01 11:18:67
  TRACK 349 AUDIO
    TITLE "3:cjc087_5129"
    INDEX 01 11:21:28
  TRACK 350 AUDIO
    TITLE "0:"
    INDEX 01 11:23:60
  TRACK 351 AUDIO
    TITLE "4:cjc087_5130"
    INDEX 01 11:24:58
  TRACK 352 AUDIO
    TITLE "3:cjc087_5131"
    INDEX 01 11:27:38
  TRACK 353 AUDIO
    TITLE "0:"
    INDEX 01 11:30:39
  TRACK 354 AUDIO
    TITLE "4:cjc087_5132"
    INDEX 01 11:31:38
  TRACK 355 AUDIO
    TITLE "3:cjc087_5133"
    INDEX 01 11:33:35
  TRACK 356 AUDIO
    TITLE "0:"
    INDEX 01 11:35:20
  TRACK 357 AUDIO
    TITLE "4:cjc087_5134"
    INDEX 01 11:36:18
  TRACK 358 AUDIO
    TITLE "3:cjc087_5135"
    INDEX 01 11:38:56
  TRACK 359 AUDIO
    TITLE "0:"
    INDEX 01 11:41:36
  TRACK 360 AUDIO
    TITLE "5:cjc087_5136"
    INDEX 01 11:42:71
  TRACK 361 AUDIO
    TITLE "0:"
    INDEX 01 11:45:22
  TRACK 362 AUDIO
    TITLE "4:cjc087_5137"
    INDEX 01 11:46:20
  TRACK 363 AUDIO
    TITLE "3:cjc087_5138"
    INDEX 01 11:47:59
  TRACK 364 AUDIO
    TITLE "0:"
    INDEX 01 11:49:52
  TRACK 365 AUDIO
    TITLE "4:cjc087_5139"
    INDEX 01 11:50:51
  TRACK 366 AUDIO
    TITLE "3:cjc087_5140"
    INDEX 01 11:52:30
  TRACK 367 AUDIO
    TITLE "0:"
    INDEX 01 11:54:63
  TRACK 368 AUDIO
    TITLE "4:cjc087_5141"
    INDEX 01 11:55:62
  TRACK 369 AUDIO
    TITLE "3:cjc087_5142"
    INDEX 01 11:57:18
  TRACK 370 AUDIO
    TITLE "0:"
    INDEX 01 11:59:30
  TRACK 371 AUDIO
    TITLE "4:cjc087_5143"
    INDEX 01 12:00:28
  TRACK 372 AUDIO
    TITLE "3:cjc087_5144"
    INDEX 01 12:01:70
  TRACK 373 AUDIO
    TITLE "0:"
    INDEX 01 12:03:60
  TRACK 374 AUDIO
    TITLE "4:cjc087_5145"
    INDEX 01 12:04:59
  TRACK 375 AUDIO
    TITLE "3:cjc087_5146"
    INDEX 01 12:06:27
  TRACK 376 AUDIO
    TITLE "0:"
    INDEX 01 12:08:25
  TRACK 377 AUDIO
    TITLE "4:cjc087_5147"
    INDEX 01 12:09:23
  TRACK 378 AUDIO
    TITLE "3:cjc087_5148"
    INDEX 01 12:11:12
  TRACK 379 AUDIO
    TITLE "0:"
    INDEX 01 12:13:17
  TRACK 380 AUDIO
    TITLE "4:cjc087_5149"
    INDEX 01 12:14:14
  TRACK 381 AUDIO
    TITLE "3:cjc087_5150"
    INDEX 01 12:16:09
  TRACK 382 AUDIO
    TITLE "0:"
    INDEX 01 12:18:32
  TRACK 383 AUDIO
    TITLE "5:cjc087_5151"
    INDEX 01 12:19:68
  TRACK 384 AUDIO
    TITLE "0:"
    INDEX 01 12:22:22
  TRACK 385 AUDIO
    TITLE "4:cjc087_5152"
    INDEX 01 12:23:19
  TRACK 386 AUDIO
    TITLE "3:cjc087_5153"
    INDEX 01 12:24:64
  TRACK 387 AUDIO
    TITLE "0:"
    INDEX 01 12:27:09
  TRACK 388 AUDIO
    TITLE "4:cjc087_5154"
    INDEX 01 12:28:07
  TRACK 389 AUDIO
    TITLE "3:cjc087_5155"
    INDEX 01 12:29:18
  TRACK 390 AUDIO
    TITLE "0:"
    INDEX 01 12:31:27
  TRACK 391 AUDIO
    TITLE "4:cjc087_5156"
    INDEX 01 12:32:24
  TRACK 392 AUDIO
    TITLE "3:cjc087_5157"
    INDEX 01 12:33:47
  TRACK 393 AUDIO
    TITLE "0:"
    INDEX 01 12:35:50
  TRACK 394 AUDIO
    TITLE "4:cjc087_5158"
    INDEX 01 12:36:49
  TRACK 395 AUDIO
    TITLE "3:cjc087_5159"
    INDEX 01 12:38:23
  TRACK 396 AUDIO
    TITLE "0:"
    INDEX 01 12:40:33
  TRACK 397 AUDIO
    TITLE "4:cjc087_5160"
    INDEX 01 12:41:35
  TRACK 398 AUDIO
    TITLE "3:cjc087_5161"
    INDEX 01 12:43:10
  TRACK 399 AUDIO
    TITLE "0:"
    INDEX 01 12:45:34
  TRACK 400 AUDIO
    TITLE "4:cjc087_5162"
    INDEX 01 12:46:34
  TRACK 401 AUDIO
    TITLE "3:cjc087_5163"
    INDEX 01 12:47:67
  TRACK 402 AUDIO
    TITLE "0:"
    INDEX 01 12:49:56
  TRACK 403 AUDIO
    TITLE "4:cjc087_5164"
    INDEX 01 12:50:55
  TRACK 404 AUDIO
    TITLE "3:cjc087_5165"
    INDEX 01 12:52:52
  TRACK 405 AUDIO
    TITLE "0:"
    INDEX 01 12:55:07
  TRACK 406 AUDIO
    TITLE "5:cjc087_5166"
    INDEX 01 12:56:44
  TRACK 407 AUDIO
    TITLE "0:"
    INDEX 01 12:58:72
  TRACK 408 AUDIO
    TITLE "4:cjc087_5167"
    INDEX 01 12:59:68
  TRACK 409 AUDIO
    TITLE "3:cjc087_5168"
    INDEX 01 13:01:69
  TRACK 410 AUDIO
    TITLE "0:"
    INDEX 01 13:04:02
  TRACK 411 AUDIO
    TITLE "4:cjc087_5169"
    INDEX 01 13:05:04
  TRACK 412 AUDIO
    TITLE "3:cjc087_5170"
    INDEX 01 13:07:56
  TRACK 413 AUDIO
    TITLE "0:"
    INDEX 01 13:10:25
  TRACK 414 AUDIO
    TITLE "4:cjc087_5171"
    INDEX 01 13:11:24
  TRACK 415 AUDIO
    TITLE "3:cjc087_5172"
    INDEX 01 13:13:11
  TRACK 416 AUDIO
    TITLE "0:"
    INDEX 01 13:15:18
  TRACK 417 AUDIO
    TITLE "4:cjc087_5173"
    INDEX 01 13:16:17
  TRACK 418 AUDIO
    TITLE "3:cjc087_5174"
    INDEX 01 13:17:60
  TRACK 419 AUDIO
    TITLE "0:"
    INDEX 01 13:19:55
  TRACK 420 AUDIO
    TITLE "4:cjc087_5175"
    INDEX 01 13:20:52
  TRACK 421 AUDIO
    TITLE "3:cjc087_5176"
    INDEX 01 13:22:42
  TRACK 422 AUDIO
    TITLE "0:"
    INDEX 01 13:24:23
  TRACK 423 AUDIO
    TITLE "4:cjc087_5177"
    INDEX 01 13:25:24
  TRACK 424 AUDIO
    TITLE "3:cjc087_5178"
    INDEX 01 13:26:43
  TRACK 425 AUDIO
    TITLE "0:"
    INDEX 01 13:28:50
  TRACK 426 AUDIO
    TITLE "4:cjc087_5179"
    INDEX 01 13:29:51
  TRACK 427 AUDIO
    TITLE "3:cjc087_5180"
    INDEX 01 13:31:46
  TRACK 428 AUDIO
    TITLE "0:"
    INDEX 01 13:33:37
  TRACK 429 AUDIO
    TITLE "5:cjc087_5181"
    INDEX 01 13:34:74
  TRACK 430 AUDIO
    TITLE "0:"
    INDEX 01 13:37:00
  TRACK 431 AUDIO
    TITLE "4:cjc087_5182"
    INDEX 01 13:37:72
  TRACK 432 AUDIO
    TITLE "3:cjc087_5183"
    INDEX 01 13:40:00
  TRACK 433 AUDIO
    TITLE "0:"
    INDEX 01 13:42:09
  TRACK 434 AUDIO
    TITLE "4:cjc087_5184"
    INDEX 01 13:43:06
  TRACK 435 AUDIO
    TITLE "3:cjc087_5185"
    INDEX 01 13:45:09
  TRACK 436 AUDIO
    TITLE "0:"
    INDEX 01 13:46:67
  TRACK 437 AUDIO
    TITLE "4:cjc087_5186"
    INDEX 01 13:47:67
  TRACK 438 AUDIO
    TITLE "3:cjc087_5187"
    INDEX 01 13:49:36
  TRACK 439 AUDIO
    TITLE "0:"
    INDEX 01 13:51:59
  TRACK 440 AUDIO
    TITLE "4:cjc087_5188"
    INDEX 01 13:52:58
  TRACK 441 AUDIO
    TITLE "3:cjc087_5189"
    INDEX 01 13:55:47
  TRACK 442 AUDIO
    TITLE "0:"
    INDEX 01 13:59:19
  TRACK 443 AUDIO
    TITLE "4:cjc087_5190"
    INDEX 01 14:00:17
  TRACK 444 AUDIO
    TITLE "3:cjc087_5191"
    INDEX 01 14:02:14
  TRACK 445 AUDIO
    TITLE "0:"
    INDEX 01 14:04:54
  TRACK 446 AUDIO
    TITLE "4:cjc087_5192"
    INDEX 01 14:05:53
  TRACK 447 AUDIO
    TITLE "3:cjc087_5193"
    INDEX 01 14:08:04
  TRACK 448 AUDIO
    TITLE "0:"
    INDEX 01 14:10:33
  TRACK 449 AUDIO
    TITLE "4:cjc087_5194"
    INDEX 01 14:11:30
  TRACK 450 AUDIO
    TITLE "3:cjc087_5195"
    INDEX 01 14:14:25
  TRACK 451 AUDIO
    TITLE "0:"
    INDEX 01 14:17:37
  TRACK 452 AUDIO
    TITLE "2:cjc087_5196"
    INDEX 01 14:18:73
  TRACK 453 AUDIO
    TITLE "0:"
    INDEX 01 14:32:15
  TRACK 454 AUDIO
    TITLE "5:cjc087_5197"
    INDEX 01 14:33:59
  TRACK 455 AUDIO
    TITLE "0:"
    INDEX 01 14:36:03
  TRACK 456 AUDIO
    TITLE "4:cjc087_5198"
    INDEX 01 14:37:00
  TRACK 457 AUDIO
    TITLE "3:cjc087_5199"
    INDEX 01 14:39:34
  TRACK 458 AUDIO
    TITLE "0:"
    INDEX 01 14:41:41
  TRACK 459 AUDIO
    TITLE "4:cjc087_5200"
    INDEX 01 14:42:37
  TRACK 460 AUDIO
    TITLE "3:cjc087_5201"
    INDEX 01 14:44:18
  TRACK 461 AUDIO
    TITLE "0:"
    INDEX 01 14:46:29
  TRACK 462 AUDIO
    TITLE "4:cjc087_5202"
    INDEX 01 14:47:26
  TRACK 463 AUDIO
    TITLE "3:cjc087_5203"
    INDEX 01 14:49:11
  TRACK 464 AUDIO
    TITLE "0:"
    INDEX 01 14:51:36
  TRACK 465 AUDIO
    TITLE "4:cjc087_5204"
    INDEX 01 14:52:37
  TRACK 466 AUDIO
    TITLE "3:cjc087_5205"
    INDEX 01 14:54:38
  TRACK 467 AUDIO
    TITLE "0:"
    INDEX 01 14:56:23
  TRACK 468 AUDIO
    TITLE "4:cjc087_5206"
    INDEX 01 14:57:21
  TRACK 469 AUDIO
    TITLE "3:cjc087_5207"
    INDEX 01 14:59:08
  TRACK 470 AUDIO
    TITLE "0:"
    INDEX 01 15:00:56
  TRACK 471 AUDIO
    TITLE "4:cjc087_5208"
    INDEX 01 15:01:56
  TRACK 472 AUDIO
    TITLE "3:cjc087_5209"
    INDEX 01 15:04:11
  TRACK 473 AUDIO
    TITLE "0:"
    INDEX 01 15:06:55
  TRACK 474 AUDIO
    TITLE "4:cjc087_5210"
    INDEX 01 15:07:54
  TRACK 475 AUDIO
    TITLE "3:cjc087_5211"
    INDEX 01 15:09:59
  TRACK 476 AUDIO
    TITLE "0:"
    INDEX 01 15:12:12
  TRACK 477 AUDIO
    TITLE "5:cjc087_5212"
    INDEX 01 15:13:49
  TRACK 478 AUDIO
    TITLE "0:"
    INDEX 01 15:15:63
  TRACK 479 AUDIO
    TITLE "4:cjc087_5213"
    INDEX 01 15:16:59
  TRACK 480 AUDIO
    TITLE "3:cjc087_5214"
    INDEX 01 15:18:48
  TRACK 481 AUDIO
    TITLE "0:"
    INDEX 01 15:20:61
  TRACK 482 AUDIO
    TITLE "4:cjc087_5215"
    INDEX 01 15:21:60
  TRACK 483 AUDIO
    TITLE "3:cjc087_5216"
    INDEX 01 15:23:59
  TRACK 484 AUDIO
    TITLE "0:"
    INDEX 01 15:26:20
  TRACK 485 AUDIO
    TITLE "4:cjc087_5217"
    INDEX 01 15:27:20
  TRACK 486 AUDIO
    TITLE "3:cjc087_5218"
    INDEX 01 15:30:04
  TRACK 487 AUDIO
    TITLE "0:"
    INDEX 01 15:33:03
  TRACK 488 AUDIO
    TITLE "4:cjc087_5219"
    INDEX 01 15:33:73
  TRACK 489 AUDIO
    TITLE "3:cjc087_5220"
    INDEX 01 15:36:58
  TRACK 490 AUDIO
    TITLE "0:"
    INDEX 01 15:39:25
  TRACK 491 AUDIO
    TITLE "4:cjc087_5221"
    INDEX 01 15:40:20
  TRACK 492 AUDIO
    TITLE "3:cjc087_5222"
    INDEX 01 15:41:47
  TRACK 493 AUDIO
    TITLE "0:"
    INDEX 01 15:43:54
  TRACK 494 AUDIO
    TITLE "4:cjc087_5223"
    INDEX 01 15:44:55
  TRACK 495 AUDIO
    TITLE "3:cjc087_5224"
    INDEX 01 15:46:42
  TRACK 496 AUDIO
    TITLE "0:"
    INDEX 01 15:48:47
  TRACK 497 AUDIO
    TITLE "4:cjc087_5225"
    INDEX 01 15:49:45
  TRACK 498 AUDIO
    TITLE "3:cjc087_5226"
    INDEX 01 15:52:08
  TRACK 499 AUDIO
    TITLE "0:"
    INDEX 01 15:54:24
